<?xml version="1.0" standalone="no"?>
<!DOCTYPE svg PUBLIC "-//W3C//DTD SVG 20010904//EN"
 "http://www.w3.org/TR/2001/REC-SVG-20010904/DTD/svg10.dtd">
<svg version="1.0" xmlns="http://www.w3.org/2000/svg"
 width="689.000000pt" height="541.000000pt" viewBox="0 0 689.000000 541.000000"
 preserveAspectRatio="xMidYMid meet">

<g transform="translate(0.000000,541.000000) scale(0.100000,-0.100000)"
fill="#000000" stroke="none">
<path d="M0 2705 l0 -2705 3445 0 3445 0 0 2705 0 2705 -3445 0 -3445 0 0
-2705z m3753 2522 c22 -18 22 -33 -2 -40 -16 -4 -19 0 -18 22 2 20 -2 25 -15
23 -11 -2 -18 3 -18 13 0 17 14 12 53 -18z m-23 -7 c0 -5 -8 -10 -17 -10 -15
0 -16 2 -3 10 19 12 20 12 20 0z m70 -38 c0 -12 3 -13 8 -5 5 8 13 9 22 3 12
-8 12 -10 -4 -10 -16 0 -17 -2 -5 -17 12 -14 9 -13 -16 2 -16 11 -31 20 -33
21 -1 0 0 9 4 18 7 19 24 11 24 -12z m70 -36 c0 -20 17 -29 26 -15 4 8 3 9 -4
5 -7 -4 -12 -2 -12 4 0 6 8 10 18 8 11 -2 16 -11 14 -23 -5 -28 -6 -28 -41 -8
-32 19 -42 43 -16 43 8 0 15 -6 15 -14z m69 -49 c1 19 41 2 41 -18 0 -20 -15
-26 -25 -9 -3 5 -12 7 -20 3 -11 -4 -15 2 -14 23 0 25 1 26 9 9 5 -11 9 -15 9
-8z m64 -32 c-7 -21 -13 -19 -13 6 0 11 4 18 10 14 5 -3 7 -12 3 -20z m33 -10
c4 -8 10 -12 15 -9 14 8 39 -15 38 -35 0 -10 -2 -12 -6 -3 -2 6 -9 10 -14 6
-5 -3 -9 0 -9 6 0 6 -4 9 -9 6 -16 -10 -41 5 -41 25 0 23 18 25 26 4z m507
-792 c35 -22 45 -41 31 -56 -4 -4 -35 9 -69 28 -34 19 -65 32 -68 28 -16 -15
-4 -30 43 -58 45 -26 61 -51 44 -68 -3 -3 -28 8 -55 24 -59 34 -59 34 -59 9 0
-12 16 -29 43 -46 23 -14 52 -32 64 -40 21 -13 22 -44 1 -44 -5 0 -44 20 -88
45 l-79 46 14 47 c7 26 21 73 29 105 l17 57 47 -27 c26 -15 64 -37 85 -50z
m218 4 c-13 -13 -26 -3 -16 12 3 6 11 8 17 5 6 -4 6 -10 -1 -17z m69 -37 c0
-5 -5 -10 -11 -10 -5 0 -7 5 -4 10 3 6 8 10 11 10 2 0 4 -4 4 -10z m38 -35
c-3 -3 -9 2 -12 12 -6 14 -5 15 5 6 7 -7 10 -15 7 -18z m29 -17 c-3 -8 -6 -5
-6 6 -1 11 2 17 5 13 3 -3 4 -12 1 -19z m-155 -91 c8 -15 6 -36 -7 -86 -10
-36 -19 -68 -21 -70 -8 -9 -133 72 -139 89 -7 23 2 77 15 85 5 3 34 -8 65 -26
38 -21 55 -27 55 -17 0 7 -25 27 -55 43 -49 27 -66 50 -49 67 9 10 124 -63
136 -85z m-724 53 c-14 -22 -24 -19 -15 5 4 8 11 15 17 15 6 0 6 -7 -2 -20z
m75 -47 c2 -12 0 -20 -4 -17 -5 3 -9 11 -9 19 0 9 -8 12 -25 9 -27 -5 -28 -4
-19 19 8 21 51 -1 57 -30z m27 -16 c0 -18 -2 -19 -10 -7 -13 20 -13 43 0 35 6
-3 10 -16 10 -28z m60 -27 c0 -13 -5 -18 -15 -14 -16 7 -19 17 -8 27 12 13 23
7 23 -13z m681 -17 c53 -30 53 -31 40 -52 -7 -11 -15 -10 -44 8 -19 11 -37 21
-40 21 -3 0 -11 -25 -18 -55 -14 -61 -18 -68 -38 -55 -24 14 19 159 48 160 1
0 25 -12 52 -27z m-624 -5 c7 -6 10 -15 6 -21 -3 -6 -1 -7 6 -3 6 4 28 -3 49
-16 20 -12 40 -22 44 -21 4 2 6 -6 5 -17 -2 -25 -13 -26 -26 -2 -6 9 -11 13
-11 9 0 -4 -9 -3 -20 3 -11 6 -18 15 -15 20 3 4 -3 7 -12 5 -10 -1 -26 7 -36
19 -10 11 -16 15 -12 9 4 -9 1 -11 -9 -7 -9 3 -16 12 -16 18 0 15 30 17 47 4z
m740 -36 c-4 -19 2 -28 24 -41 32 -18 33 -20 20 -40 -7 -11 -13 -10 -34 4
l-26 17 -11 -43 c-11 -41 -11 -44 14 -64 14 -11 26 -28 26 -38 0 -21 -1 -21
-44 4 -54 32 -54 39 -9 197 12 45 17 51 30 41 8 -8 13 -23 10 -37z m-222 -125
c112 -65 174 -108 135 -94 -39 13 -294 165 -298 176 -5 16 0 13 163 -82z m349
56 c-1 -26 5 -34 37 -53 64 -35 71 -53 51 -132 -9 -39 -21 -68 -28 -68 -27 0
-27 23 2 121 5 18 -58 65 -74 55 -5 -3 -15 -30 -22 -61 -14 -57 -20 -64 -38
-42 -7 8 -3 39 14 102 13 50 26 96 29 103 9 24 30 6 29 -25z m-699 15 c5 4 6
0 2 -9 -3 -9 0 -16 6 -16 9 1 70 -24 95 -39 2 -2 -1 -11 -7 -21 -6 -10 -11
-13 -11 -6 0 7 -6 10 -14 7 -9 -3 -17 3 -21 15 -4 12 -12 18 -21 14 -8 -3 -23
2 -34 12 -10 9 -24 14 -29 10 -6 -3 -11 2 -11 13 0 25 10 34 25 22 7 -5 16 -6
20 -2z m1670 -68 c3 -5 1 -10 -4 -10 -6 0 -11 5 -11 10 0 6 2 10 4 10 3 0 8
-4 11 -10z m-1525 -33 c0 -6 3 -7 6 -4 12 12 44 -14 44 -36 0 -16 -3 -18 -9
-9 -4 8 -11 12 -14 10 -4 -1 -18 6 -32 16 -27 20 -35 49 -10 40 8 -4 15 -11
15 -17z m1570 13 c8 -5 11 -10 5 -10 -5 0 -17 5 -25 10 -8 5 -10 10 -5 10 6 0
17 -5 25 -10z m-1460 -74 c0 -10 -30 0 -34 11 -4 11 -1 11 14 3 11 -6 20 -12
20 -14z m40 -29 c0 9 6 8 19 -4 11 -9 18 -20 15 -25 -9 -14 -24 -9 -24 9 0 9
-3 13 -7 10 -9 -10 -33 13 -33 32 1 11 5 8 15 -9 8 -14 14 -19 15 -13z m-15
-134 c88 -52 168 -103 178 -114 26 -32 22 -85 -7 -105 -24 -15 -28 -14 -112
32 -91 49 -107 49 -32 -1 127 -85 319 -320 396 -485 99 -211 139 -450 112
-668 -9 -69 -44 -208 -55 -221 -2 -2 -28 11 -58 28 -51 29 -55 34 -48 59 11
39 43 41 58 2 19 -49 31 -35 30 34 -2 46 -5 62 -13 55 -12 -10 -26 3 -38 36
-5 15 -9 16 -15 6 -15 -23 -21 4 -27 106 -3 74 -2 95 7 86 9 -9 15 -9 25 1 14
14 8 92 -7 102 -5 3 -9 14 -9 25 0 11 -5 17 -10 14 -6 -3 -7 -18 -4 -33 4 -21
3 -24 -5 -12 -8 12 -11 8 -11 -18 0 -20 -4 -31 -10 -27 -6 4 -8 16 -4 27 4 13
2 18 -4 14 -6 -3 -14 -1 -18 5 -4 8 -3 9 4 5 14 -8 15 -4 6 18 -3 9 -12 16
-20 16 -7 0 -18 8 -24 18 -8 12 -13 13 -16 5 -8 -17 -24 -16 -24 1 0 25 -69
38 -71 14 0 -7 -3 -25 -5 -40 -4 -23 -1 -28 16 -28 24 0 25 -18 5 -75 -20 -54
-20 -51 24 -81 46 -30 54 -52 40 -112 -8 -39 -7 -46 13 -68 13 -13 27 -24 32
-24 23 0 50 -70 27 -70 -14 0 -356 196 -404 232 -17 13 -17 14 3 36 11 12 27
22 36 22 8 0 20 12 26 28 7 15 18 34 26 44 10 12 10 18 2 23 -7 4 -15 3 -19
-3 -7 -12 -61 -36 -73 -34 -5 1 -8 -4 -8 -12 0 -7 -11 -25 -24 -39 -15 -17
-20 -28 -13 -31 9 -3 9 -5 0 -5 -18 -1 -25 16 -25 64 0 35 -4 48 -19 56 -11 5
-17 14 -14 20 8 13 -9 11 -22 -2 -8 -8 -10 5 -7 46 3 40 1 54 -7 49 -7 -4 -10
-1 -7 7 3 8 11 13 17 11 7 -1 9 3 6 9 -4 6 -15 9 -25 6 -15 -4 -17 -1 -11 17
19 52 -12 148 -42 129 -6 -4 -7 -1 -2 7 5 8 10 31 11 52 2 20 8 47 14 58 14
26 -1 100 -20 100 -11 0 1 84 13 89 5 2 3 7 -4 12 -9 5 -5 10 14 14 16 4 27
14 27 24 0 10 3 21 7 25 13 12 31 78 26 92 -4 12 -27 19 -88 27 -11 1 -26 6
-33 11 -7 4 -24 5 -37 2 -13 -3 -27 -2 -30 4 -3 5 -1 10 6 10 18 0 69 61 69
82 0 10 -15 38 -32 62 -33 44 -40 48 -133 61 -64 10 -74 17 -35 25 162 35 201
35 278 3 l37 -15 -21 23 c-42 47 -43 113 -1 128 29 11 25 12 212 -96z m85 96
c0 -5 4 -8 10 -4 5 3 16 -7 25 -22 9 -15 14 -20 11 -10 -3 9 -1 17 5 17 6 0 9
-8 7 -17 -5 -24 -20 -21 -35 8 -7 13 -13 19 -13 12 0 -7 -7 -10 -15 -7 -17 7
-21 34 -5 34 6 0 10 -5 10 -11z m115 -71 c15 8 25 -1 24 -20 -1 -17 -3 -18 -6
-6 -2 10 -10 15 -19 11 -8 -3 -17 4 -23 18 -5 13 -10 18 -10 10 -1 -8 -4 -12
-7 -8 -3 3 -3 11 2 18 5 9 11 7 21 -7 8 -10 16 -18 18 -16z m104 -77 c-6 -2
-16 2 -22 9 -9 10 -9 11 1 6 7 -4 12 -2 12 6 0 9 3 9 10 -2 6 -10 6 -16 -1
-19z m63 -15 c4 3 9 1 13 -5 4 -7 -4 -11 -19 -11 -14 0 -28 5 -32 12 -5 7 -3
8 6 3 10 -6 12 -3 7 11 -7 18 -6 18 6 2 8 -10 16 -15 19 -12z m58 -31 c0 -7
-30 -13 -34 -7 -3 4 4 9 15 9 10 1 19 0 19 -2z m27 -37 c-3 -7 -5 -2 -5 12 0
14 2 19 5 13 2 -7 2 -19 0 -25z m93 -28 c7 -14 7 -20 0 -20 -5 0 -10 7 -10 15
0 8 -4 15 -10 15 -5 0 -10 -5 -10 -12 0 -6 -3 -9 -6 -5 -8 7 4 27 16 27 5 0
14 -9 20 -20z m138 -95 c-3 -3 -9 2 -12 12 -6 14 -5 15 5 6 7 -7 10 -15 7 -18z
m42 -15 c0 -5 -2 -10 -4 -10 -3 0 -8 5 -11 10 -3 6 -1 10 4 10 6 0 11 -4 11
-10z m-1030 -160 c0 -5 -5 -10 -11 -10 -5 0 -7 5 -4 10 3 6 8 10 11 10 2 0 4
-4 4 -10z m-23 -41 c-4 -16 -3 -18 8 -9 10 8 12 4 12 -18 -2 -46 -21 -55 -34
-16 -5 19 -6 34 -2 34 5 0 9 7 9 15 0 8 3 15 6 15 4 0 4 -9 1 -21z m666 -685
c-3 -9 0 -20 8 -26 10 -7 6 -8 -14 -5 -20 3 -31 -1 -38 -16 -11 -19 -12 -19
-35 9 -28 34 -30 52 -8 61 11 4 22 -1 30 -12 13 -17 14 -17 15 -2 1 9 3 22 4
27 1 6 3 13 4 18 1 4 10 -3 21 -16 10 -13 16 -30 13 -38z"/>
<path d="M4610 4041 c0 -9 61 -51 74 -51 17 0 2 28 -23 43 -32 19 -51 22 -51
8z"/>
<path d="M4596 3265 c6 -15 42 -31 50 -22 8 7 -26 37 -41 37 -9 0 -12 -6 -9
-15z"/>
<path d="M4716 3123 c-3 -3 -1 -14 5 -25 5 -10 7 -23 3 -29 -3 -6 10 -26 30
-45 39 -36 78 -44 110 -21 16 12 16 14 -4 40 -12 15 -27 26 -33 25 -17 -3 -57
12 -57 22 0 11 -46 40 -54 33z"/>
<path d="M4620 3044 c0 -3 11 -19 25 -36 25 -29 30 -24 19 20 -6 19 -44 34
-44 16z"/>
<path d="M4762 2926 c-18 -65 13 -130 43 -90 8 10 14 28 15 39 0 19 -34 85
-44 85 -3 0 -9 -15 -14 -34z"/>
<path d="M4816 2643 c-3 -10 -9 -24 -12 -30 -3 -7 -1 -13 4 -13 5 0 13 12 16
26 8 30 2 44 -8 17z"/>
<path d="M4490 2575 c-7 -9 -8 -15 -2 -15 5 0 12 7 16 15 3 8 4 15 2 15 -2 0
-9 -7 -16 -15z"/>
<path d="M4755 2579 c-11 -17 1 -21 15 -4 8 9 8 15 2 15 -6 0 -14 -5 -17 -11z"/>
<path d="M5157 2313 c-10 -9 -8 -43 2 -43 5 0 9 11 9 25 0 27 -1 28 -11 18z"/>
</g>
</svg>
